<svg width="14.759995" height="14.759995" viewBox="0 0 14.76 14.76" fill="none" xmlns="http://www.w3.org/2000/svg" xmlns:xlink="http://www.w3.org/1999/xlink">
    <path id="Vector" d="M0 5.34C0 3.47 0 2.53 0.36 1.82C0.68 1.19 1.19 0.68 1.82 0.36C2.53 0 3.47 0 5.34 0L9.41 0C11.28 0 12.22 0 12.93 0.36C13.56 0.68 14.07 1.19 14.39 1.82C14.76 2.53 14.76 3.47 14.76 5.34L14.76 9.41C14.76 11.28 14.76 12.22 14.39 12.93C14.07 13.56 13.56 14.07 12.93 14.39C12.22 14.76 11.28 14.76 9.41 14.76L5.34 14.76C3.47 14.76 2.53 14.76 1.82 14.39C1.19 14.07 0.68 13.56 0.36 12.93C0 12.22 0 11.28 0 9.41L0 5.34Z" fill="#001E36" fill-opacity="1.000000" fill-rule="nonzero"/>
    <path id="Vector" d="M3.16 10.81L3.16 4.32C3.16 4.28 3.18 4.25 3.22 4.25C3.85 4.25 4.49 4.21 5.13 4.21C6.16 4.21 7.27 4.56 7.67 5.64C7.76 5.91 7.81 6.18 7.81 6.46C7.81 7.01 7.68 7.45 7.44 7.81C6.75 8.79 5.56 8.78 4.49 8.78L4.49 10.8C4.5 10.86 4.45 10.89 4.4 10.89L3.23 10.89C3.18 10.89 3.16 10.87 3.16 10.81ZM4.5 5.47L4.5 7.59C4.92 7.62 5.36 7.62 5.77 7.49C6.22 7.36 6.47 6.97 6.47 6.5C6.48 6.1 6.26 5.72 5.89 5.58C5.49 5.41 4.93 5.4 4.5 5.47Z" fill="#31A8FF" fill-opacity="1.000000" fill-rule="nonzero"/>
    <path id="Vector" d="M11.64 7.17C11.46 7.07 11.26 7 11.05 6.95C10.79 6.89 9.75 6.68 9.75 7.22C9.76 7.52 10.24 7.67 10.45 7.76C11.2 8.01 12.05 8.47 12.03 9.39C12.05 10.54 10.94 11 9.99 11C9.49 11 8.98 10.93 8.52 10.71C8.48 10.69 8.45 10.64 8.45 10.59L8.45 9.49C8.45 9.45 8.5 9.41 8.53 9.44C8.98 9.71 9.51 9.84 10.02 9.85C10.25 9.85 10.7 9.83 10.69 9.49C10.69 9.17 10.15 9.03 9.94 8.95C9.63 8.83 9.33 8.68 9.06 8.49C8.69 8.22 8.45 7.79 8.45 7.31C8.45 6.23 9.47 5.75 10.4 5.75C10.83 5.74 11.29 5.77 11.69 5.95C11.75 5.97 11.76 6.03 11.76 6.08L11.76 7.11C11.76 7.17 11.69 7.19 11.64 7.17Z" fill="#31A8FF" fill-opacity="1.000000" fill-rule="nonzero"/>
</svg>
