<svg width="17.000000" height="17.000000" viewBox="0 0 17 17" fill="none" xmlns="http://www.w3.org/2000/svg" xmlns:xlink="http://www.w3.org/1999/xlink">
    <path id="logoWordpress" d="M1.12 8.5C1.12 11.42 2.82 13.94 5.28 15.13L1.76 5.49C1.34 6.44 1.12 7.46 1.12 8.5ZM8.5 15.87C9.35 15.87 10.18 15.72 10.95 15.45L10.89 15.35L8.63 9.14L6.42 15.57C7.07 15.77 7.77 15.87 8.5 15.87ZM9.51 5.04L12.18 12.97L12.92 10.51C13.23 9.49 13.47 8.76 13.47 8.12C13.47 7.21 13.14 6.58 12.87 6.1C12.49 5.48 12.14 4.96 12.14 4.36C12.14 3.68 12.65 3.06 13.39 3.06L13.48 3.06C12.12 1.81 10.34 1.12 8.5 1.12C7.27 1.12 6.07 1.42 5 2C3.92 2.58 3.01 3.42 2.34 4.44L2.81 4.45C3.58 4.45 4.77 4.36 4.77 4.36C5.17 4.34 5.22 4.92 4.82 4.96C4.82 4.96 4.42 5.02 3.97 5.04L6.66 13.03L8.28 8.19L7.13 5.04C6.87 5.02 6.61 5 6.36 4.97C5.96 4.94 6 4.34 6.4 4.36C6.4 4.36 7.62 4.45 8.34 4.45C9.12 4.45 10.31 4.36 10.31 4.36C10.71 4.34 10.76 4.92 10.36 4.96C10.36 4.96 9.96 5.01 9.51 5.04ZM12.2 14.87C13.32 14.22 14.24 13.29 14.89 12.17C15.53 11.05 15.87 9.79 15.87 8.5C15.87 7.21 15.54 6.01 14.97 4.96C15.08 6.12 14.91 7.28 14.46 8.36L12.2 14.87ZM8.5 17C6.24 17 4.08 16.1 2.48 14.51C0.89 12.91 0 10.75 0 8.5C0 6.24 0.89 4.08 2.48 2.48C4.08 0.89 6.24 0 8.5 0C10.75 0 12.91 0.89 14.51 2.48C16.1 4.08 17 6.24 17 8.5C17 10.75 16.1 12.91 14.51 14.51C12.91 16.1 10.75 17 8.5 17Z" fill="#126FC2" fill-opacity="1.000000" fill-rule="nonzero"/>
</svg>
