<svg width="14.759995" height="14.759995" viewBox="0 0 14.76 14.76" fill="none" xmlns="http://www.w3.org/2000/svg" xmlns:xlink="http://www.w3.org/1999/xlink">
    <path id="Vector" d="M0 5.34C0 3.47 0 2.53 0.36 1.82C0.68 1.19 1.19 0.68 1.82 0.36C2.53 0 3.47 0 5.34 0L9.41 0C11.28 0 12.22 0 12.93 0.36C13.56 0.68 14.07 1.19 14.39 1.82C14.76 2.53 14.76 3.47 14.76 5.34L14.76 9.41C14.76 11.28 14.76 12.22 14.39 12.93C14.07 13.56 13.56 14.07 12.93 14.39C12.22 14.76 11.28 14.76 9.41 14.76L5.34 14.76C3.47 14.76 2.53 14.76 1.82 14.39C1.19 14.07 0.68 13.56 0.36 12.93C0 12.22 0 11.28 0 9.41L0 5.34Z" fill="#00005B" fill-opacity="1.000000" fill-rule="nonzero"/>
    <path id="Vector" d="M3.16 10.43L3.16 3.79C3.16 3.75 3.18 3.72 3.22 3.72C3.86 3.72 4.49 3.69 5.13 3.69C6.17 3.69 7.29 4.05 7.68 5.15C7.77 5.42 7.82 5.7 7.82 5.99C7.82 6.54 7.7 7 7.45 7.36C6.76 8.37 5.57 8.35 4.5 8.35L4.5 10.42C4.5 10.49 4.45 10.51 4.4 10.51L3.23 10.51C3.18 10.51 3.16 10.49 3.16 10.43ZM4.5 4.97L4.5 7.13C4.93 7.17 5.37 7.17 5.78 7.03C6.23 6.9 6.48 6.5 6.48 6.03C6.49 5.62 6.27 5.23 5.9 5.08C5.5 4.91 4.94 4.9 4.5 4.97Z" fill="#9999FF" fill-opacity="1.000000" fill-rule="nonzero"/>
    <path id="Vector" d="M8.66 5.38L9.74 5.38C9.8 5.38 9.85 5.42 9.87 5.48C9.95 5.67 9.96 5.89 9.96 6.09C10.14 5.86 10.37 5.67 10.62 5.53C10.89 5.37 11.19 5.29 11.5 5.3C11.55 5.29 11.6 5.34 11.59 5.39L11.59 6.65C11.59 6.7 11.56 6.72 11.49 6.72C11.03 6.69 10.32 6.8 9.99 7.18L9.99 10.44C9.99 10.51 9.96 10.54 9.91 10.54L8.75 10.54C8.69 10.55 8.64 10.49 8.65 10.43L8.65 6.89C8.65 6.41 8.66 5.92 8.59 5.45C8.58 5.41 8.62 5.37 8.66 5.38Z" fill="#9999FF" fill-opacity="1.000000" fill-rule="nonzero"/>
</svg>
