<svg width="20.000000" height="20.000000" viewBox="0 0 20 20" fill="none" xmlns="http://www.w3.org/2000/svg" xmlns:xlink="http://www.w3.org/1999/xlink">
    <defs>
        <clipPath id="clip0_101">
            <rect id="logoZapìer 1" rx="-0.500000" width="19.000000" height="19.000000" transform="translate(0.500000 0.500000)" fill="white" fill-opacity="0"/>
        </clipPath>
    </defs>
    <rect id="logoZapìer 1" rx="-0.500000" width="19.000000" height="19.000000" transform="translate(0.500000 0.500000)" fill="#FFFFFF" fill-opacity="0"/>
    <g clip-path="url(#clip0_101)">
        <path id="Vector" d="M20 10C20 15.52 15.52 20 10 20C4.47 20 0 15.52 0 10C0 4.47 4.47 0 10 0C15.52 0 20 4.47 20 10Z" fill="#FF4A00" fill-opacity="1.000000" fill-rule="evenodd"/>
        <path id="Vector" d="M11.25 10C11.25 10.36 11.18 10.71 11.05 11.05C10.72 11.18 10.36 11.24 10 11.25L9.99 11.25C9.63 11.25 9.28 11.18 8.94 11.05C8.81 10.72 8.75 10.36 8.75 10L8.75 9.99C8.75 9.63 8.81 9.28 8.94 8.94C9.27 8.81 9.63 8.75 9.99 8.75L10 8.75C10.36 8.74 10.72 8.81 11.05 8.94C11.18 9.27 11.25 9.63 11.25 9.99L11.25 10L11.25 10ZM14.93 9.16L12.01 9.16L14.07 7.1C13.91 6.87 13.73 6.66 13.53 6.46C13.33 6.26 13.12 6.08 12.89 5.92L10.83 7.98L10.83 5.06C10.55 5.02 10.28 5 10 5L9.99 5C9.71 5 9.44 5.02 9.16 5.06L9.16 7.98L7.1 5.92C6.87 6.08 6.66 6.26 6.46 6.46C6.26 6.66 6.08 6.87 5.92 7.1L7.98 9.16L5.06 9.16C5.06 9.16 5 9.71 5 9.99L5 10C5 10.28 5.02 10.55 5.06 10.83L7.98 10.83L5.92 12.89C6.24 13.35 6.64 13.75 7.1 14.07L9.16 12.01L9.16 14.93C9.44 14.97 9.71 14.99 9.99 15L10 15C10.28 14.99 10.55 14.97 10.83 14.93L10.83 12.01L12.89 14.07C13.12 13.91 13.33 13.73 13.53 13.53C13.73 13.33 13.91 13.12 14.07 12.89L12.01 10.83L14.93 10.83C14.97 10.55 14.99 10.28 15 10L15 9.99C14.99 9.71 14.97 9.44 14.93 9.16Z" fill="#FFFFFF" fill-opacity="1.000000" fill-rule="nonzero"/>
    </g>
</svg>
