<svg width="19.499878" height="15.954872" viewBox="0 0 19.4999 15.9549" fill="none" xmlns="http://www.w3.org/2000/svg" xmlns:xlink="http://www.w3.org/1999/xlink">
    <path id="Vector" d="M0 14.67C0 15.38 0.57 15.95 1.28 15.95L1.3 15.95C0.58 15.95 0 15.38 0 14.67Z" fill="#FBBC05" fill-opacity="1.000000" fill-rule="nonzero"/>
    <path id="Vector" d="M11.05 4.78L11.05 8.11L15.54 4.49L15.54 1.27C15.54 0.57 14.96 0 14.25 0L4.52 0L4.51 4.78L11.05 4.78Z" fill="#FBBC05" fill-opacity="1.000000" fill-rule="nonzero"/>
    <path id="Vector" d="M11.05 11.45L4.5 11.45L4.49 15.95L14.25 15.95C14.96 15.95 15.54 15.38 15.54 14.67L15.54 11.77L11.05 8.12L11.05 11.45Z" fill="#34A853" fill-opacity="1.000000" fill-rule="nonzero"/>
    <path id="Vector" d="M4.52 0L0 4.78L4.51 4.78L4.52 0Z" fill="#EA4335" fill-opacity="1.000000" fill-rule="nonzero"/>
    <path id="Vector" d="M0 11.45L0 14.67C0 15.38 0.58 15.95 1.3 15.95L4.49 15.95L4.5 11.45L0 11.45Z" fill="#1967D2" fill-opacity="1.000000" fill-rule="nonzero"/>
    <path id="Vector" d="M4.51 4.78L0 4.78L0 11.45L4.5 11.45L4.51 4.78Z" fill="#4285F4" fill-opacity="1.000000" fill-rule="nonzero"/>
    <path id="Vector" d="M19.49 13.54L19.49 2.58C19.24 1.13 17.64 2.8 17.64 2.8L15.54 4.49L15.54 11.77L18.55 14.21C19.63 14.35 19.49 13.54 19.49 13.54Z" fill="#34A853" fill-opacity="1.000000" fill-rule="nonzero"/>
    <path id="Vector" d="M11.05 8.11L15.54 11.77L15.54 4.49L11.05 8.11Z" fill="#188038" fill-opacity="1.000000" fill-rule="nonzero"/>
</svg>
