<svg width="10" height="15.000000" viewBox="0 0 10 15" fill="none" xmlns="http://www.w3.org/2000/svg" xmlns:xlink="http://www.w3.org/1999/xlink">
    <path id="vector" d="M5 7.5C5 6.11 6.11 5 7.5 5C8.88 5 10 6.11 10 7.5C10 8.88 8.88 10 7.5 10C6.11 10 5 8.88 5 7.5Z" fill="#1ABCFE" fill-opacity="1.000000" fill-rule="evenodd"/>
    <path id="vector" d="M0 12.5C0 11.11 1.11 10 2.5 10L5 10L5 12.5C5 13.88 3.88 15 2.5 15C1.11 15 0 13.88 0 12.5Z" fill="#0ACF83" fill-opacity="1.000000" fill-rule="evenodd"/>
    <path id="vector" d="M5 0L5 5L7.5 5C8.88 5 10 3.88 10 2.5C10 1.11 8.88 0 7.5 0L5 0Z" fill="#FF7262" fill-opacity="1.000000" fill-rule="evenodd"/>
    <path id="vector" d="M0 2.5C0 3.88 1.11 5 2.5 5L5 5L5 0L2.5 0C1.11 0 0 1.11 0 2.5Z" fill="#F24E1E" fill-opacity="1.000000" fill-rule="evenodd"/>
    <path id="vector" d="M0 7.5C0 8.88 1.11 10 2.5 10L5 10L5 5L2.5 5C1.11 5 0 6.11 0 7.5Z" fill="#A259FF" fill-opacity="1.000000" fill-rule="evenodd"/>
</svg>
