<svg width="14.759995" height="14.759995" viewBox="0 0 14.76 14.76" fill="none" xmlns="http://www.w3.org/2000/svg" xmlns:xlink="http://www.w3.org/1999/xlink">
    <path id="Vector" d="M0 5.34C0 3.47 0 2.53 0.36 1.82C0.68 1.19 1.19 0.68 1.82 0.36C2.53 0 3.47 0 5.34 0L9.41 0C11.28 0 12.22 0 12.93 0.36C13.56 0.68 14.07 1.19 14.39 1.82C14.76 2.53 14.76 3.47 14.76 5.34L14.76 9.41C14.76 11.28 14.76 12.22 14.39 12.93C14.07 13.56 13.56 14.07 12.93 14.39C12.22 14.76 11.28 14.76 9.41 14.76L5.34 14.76C3.47 14.76 2.53 14.76 1.82 14.39C1.19 14.07 0.68 13.56 0.36 12.93C0 12.22 0 11.28 0 9.41L0 5.34Z" fill="#330000" fill-opacity="1.000000" fill-rule="nonzero"/>
    <path id="Vector" d="M7.15 9.27L4.86 9.27L4.4 10.75C4.38 10.81 4.33 10.85 4.28 10.84L3.12 10.84C3.05 10.84 3.03 10.81 3.05 10.73L5.03 4.88C5.05 4.82 5.07 4.75 5.09 4.68C5.11 4.54 5.13 4.4 5.13 4.26C5.12 4.22 5.16 4.19 5.2 4.19L6.77 4.19C6.82 4.19 6.84 4.21 6.85 4.24L9.1 10.74C9.12 10.81 9.1 10.84 9.04 10.84L7.75 10.84C7.71 10.85 7.66 10.82 7.65 10.77L7.15 9.27ZM5.22 7.99L6.78 7.99C6.52 7.11 6.23 6.25 6 5.36C5.75 6.25 5.47 7.13 5.22 7.99Z" fill="#FF9A00" fill-opacity="1.000000" fill-rule="nonzero"/>
    <path id="Vector" d="M10.43 5.27C10.33 5.27 10.23 5.26 10.14 5.22C10.05 5.18 9.96 5.12 9.89 5.05C9.82 4.97 9.77 4.88 9.73 4.78C9.69 4.68 9.68 4.57 9.68 4.47C9.68 4.36 9.7 4.26 9.74 4.16C9.77 4.06 9.83 3.98 9.91 3.9C9.98 3.83 10.06 3.78 10.16 3.74C10.25 3.7 10.35 3.68 10.45 3.69C10.69 3.69 10.88 3.76 11.01 3.9C11.08 3.98 11.14 4.07 11.17 4.16C11.21 4.26 11.22 4.36 11.22 4.47C11.22 4.57 11.2 4.68 11.17 4.78C11.13 4.88 11.08 4.97 11 5.05C10.93 5.12 10.84 5.18 10.74 5.22C10.64 5.26 10.54 5.27 10.43 5.27ZM9.75 10.74L9.75 5.89C9.75 5.83 9.78 5.8 9.83 5.8L11.05 5.8C11.1 5.8 11.13 5.83 11.13 5.89L11.13 10.74C11.13 10.81 11.1 10.84 11.05 10.84L9.84 10.84C9.78 10.84 9.75 10.81 9.75 10.74Z" fill="#FF9A00" fill-opacity="1.000000" fill-rule="nonzero"/>
</svg>
