<svg width="17.000000" height="17.722214" viewBox="0 0 17 17.7222" fill="none" xmlns="http://www.w3.org/2000/svg" xmlns:xlink="http://www.w3.org/1999/xlink">
    <path id="Vector" d="M2.93 3.1C3.48 3.55 3.68 3.52 4.72 3.45L14.48 2.86C14.68 2.86 14.51 2.65 14.44 2.62L12.82 1.45C12.51 1.21 12.1 0.93 11.3 1L1.86 1.69C1.51 1.72 1.44 1.9 1.58 2.03L2.93 3.1ZM3.51 5.38L3.51 15.64C3.51 16.2 3.79 16.4 4.41 16.37L15.13 15.75C15.75 15.71 15.82 15.33 15.82 14.89L15.82 4.69C15.82 4.24 15.65 4 15.27 4.03L4.06 4.69C3.65 4.72 3.51 4.93 3.51 5.38ZM14.1 5.93C14.17 6.24 14.1 6.55 13.79 6.58L13.27 6.69L13.27 14.26C12.82 14.51 12.41 14.64 12.06 14.64C11.51 14.64 11.37 14.47 10.96 13.96L7.58 8.65L7.58 13.78L8.65 14.02C8.65 14.02 8.65 14.65 7.79 14.65L5.41 14.78C5.34 14.65 5.41 14.3 5.65 14.23L6.27 14.06L6.27 7.27L5.41 7.2C5.34 6.89 5.51 6.44 6 6.41L8.55 6.24L12.07 11.61L12.07 6.86L11.17 6.75C11.1 6.37 11.37 6.1 11.72 6.07L14.1 5.93ZM1.06 0.76L10.89 0.04C12.1 -0.07 12.41 0 13.17 0.55L16.31 2.76C16.82 3.14 17 3.24 17 3.65L17 15.75C17 16.5 16.72 16.95 15.75 17.02L4.34 17.71C3.62 17.75 3.27 17.64 2.89 17.16L0.58 14.16C0.17 13.61 0 13.2 0 12.71L0 1.96C0 1.34 0.27 0.83 1.06 0.76Z" fill="#000000" fill-opacity="1.000000" fill-rule="nonzero"/>
</svg>
