<svg width="18.000000" height="18.000000" viewBox="0 0 18 18" fill="none" xmlns="http://www.w3.org/2000/svg" xmlns:xlink="http://www.w3.org/1999/xlink">
    <path id="logoWebflow" d="M2 0C0.89 0 0 0.89 0 2L0 16C0 17.1 0.89 18 2 18L16 18C17.1 18 18 17.1 18 16L18 2C18 0.89 17.1 0 16 0L2 0Z" fill="#FFFFFF" fill-opacity="1.000000" fill-rule="evenodd"/>
    <path id="logoWebflow" d="M2 0C0.89 0 0 0.89 0 2L0 16C0 17.1 0.89 18 2 18L16 18C17.1 18 18 17.1 18 16L18 2C18 0.89 17.1 0 16 0L2 0ZM12.4 7.34C12.4 7.34 11.42 10.28 11.34 10.52C11.1 8.68 10.85 6.84 10.6 5C8.94 5 8.06 6.13 7.59 7.33L6.31 10.53C6.3 10.3 6.13 7.37 6.13 7.37C6.02 5.9 4.63 5 3.5 5L4.86 13C6.6 12.99 7.54 11.86 8.03 10.66C8.03 10.66 9.07 8.06 9.12 7.94C9.12 8.05 9.87 12.99 9.87 12.99C11.61 12.99 12.55 11.93 13.05 10.78L15.5 5C13.77 5 12.86 6.13 12.4 7.34Z" fill="#4353FF" fill-opacity="1.000000" fill-rule="evenodd"/>
</svg>
